<?xml version="1.0" encoding="UTF-8"?>
<svg id="Layer_2" data-name="Layer 2" xmlns="http://www.w3.org/2000/svg" viewBox="0 0 129.72 51.19">
  <g id="Layer_6" data-name="Layer 6">
    <g>
      <path d="M121.42,51.19l-6.16-13.42-23.44-.03,3.37-6.65,16.93-.03-9.99-21.66-10.01,21.76c-1.72,3.74-3.68,7.05-6.33,10.13-8.5,9.85-22.57,12.8-34.08,6.64-5.08-2.71-8.97-6.98-11.17-12.23l5.14-10.67c0,7.16,3.34,13,9.21,16.54,12.36,6.45,24.3.2,30.12-12.13L98.41,1.02h7.54l23.77,50.17h-8.3Z"/>
      <path d="M0,1.02l22.69,50.17,7.49-.03,13.26-28.27c1.73-3.69,3.79-6.93,6.65-9.8,4.96-4.98,11.93-7.06,18.85-5.54,8.95,1.97,14.56,10.01,14.44,18.85l5.11-10.88c-2.13-5.16-5.68-9.3-10.57-12.04-1.92-1.08-3.91-1.89-5.95-2.46-4.91-1.39-10.03-1.34-14.82,0-5.56,1.55-10.68,4.83-14.54,9.63-2.47,3.04-4.24,6.25-5.9,9.86l-10.11,21.96L8.23,1.02H0Z"/>
      <path d="M80.23,51.19h-2.75c5.13-2.67,8.79-5.98,12.43-10.39l-3.52,10.39h-6.16Z"/>
      <path d="M41.82,1.02l-3.61,10.83c3.36-4.61,6.85-8.01,11.6-10.83h-7.99Z"/>
    </g>
  </g>
</svg>